<svg id="Componente_4_1" data-name="Componente 4 – 1" xmlns="http://www.w3.org/2000/svg" xmlns:xlink="http://www.w3.org/1999/xlink" width="265.951" height="146" viewBox="0 0 265.951 146">
  <defs>
    <radialGradient id="radial-gradient" cx="0.5" cy="0.5" r="0.5" gradientUnits="objectBoundingBox">
      <stop offset="0" stop-color="#ffd478"/>
      <stop offset="1" stop-color="#fbcc75"/>
    </radialGradient>
  </defs>
  <g id="Componente_1_2" data-name="Componente 1 – 2" transform="translate(0 6)">
    <circle id="Elipse_2" data-name="Elipse 2" cx="48.5" cy="48.5" r="48.5" fill="#fbcc75"/>
    <circle id="Elipse_3" data-name="Elipse 3" cx="45.5" cy="45.5" r="45.5" transform="translate(3 3)" fill="url(#radial-gradient)"/>
  </g>
  <g id="Componente_2_1" data-name="Componente 2 – 1" transform="translate(6)">
    <path id="Trazado_3" data-name="Trazado 3" d="M56.347.089c28.429,0,46.6,18.358,46.6,41.1S79.9,82.37,51.476,82.37,0,63.933,0,41.19C0,23.223,17.423,7.993,39.03,2.317A68.909,68.909,0,0,1,56.347.089Z" transform="translate(157 47.295)" fill="#fff"/>
    <circle id="Elipse_6" data-name="Elipse 6" cx="58.5" cy="58.5" r="58.5" transform="translate(51)" fill="#fff"/>
    <circle id="Elipse_7" data-name="Elipse 7" cx="37.5" cy="37.5" r="37.5" transform="translate(0 71)" fill="#fff"/>
    <path id="Trazado_2" data-name="Trazado 2" d="M28.5.09h186c15.74,0,34.451-5.27,34.451,12.713S230.24,65.213,214.5,65.213H28.5C12.76,65.213,0,50.635,0,32.651S12.76.09,28.5.09Z" transform="translate(11 80.787)" fill="#fff"/>
  </g>
</svg>
