<svg id="Componente_8_1" data-name="Componente 8 – 1" xmlns="http://www.w3.org/2000/svg" width="259.951" height="146" viewBox="0 0 259.951 146">
  <circle id="Elipse_11" data-name="Elipse 11" cx="42.5" cy="42.5" r="42.5" transform="translate(9 47.5)" fill="#5c636f"/>
  <path id="Trazado_28" data-name="Trazado 28" d="M56.347.089c28.429,0,46.6,18.358,46.6,41.1S79.9,82.37,51.476,82.37,0,63.933,0,41.19C0,23.223,17.423,7.993,39.03,2.317A68.909,68.909,0,0,1,56.347.089Z" transform="translate(157 47.295)" fill="#d3d3cb"/>
  <circle id="Elipse_13" data-name="Elipse 13" cx="58.5" cy="58.5" r="58.5" transform="translate(51)" fill="#d3d3cb"/>
  <circle id="Elipse_14" data-name="Elipse 14" cx="37.5" cy="37.5" r="37.5" transform="translate(0 71)" fill="#d3d3cb"/>
  <path id="Trazado_29" data-name="Trazado 29" d="M28.5.09h186c15.74,0,34.451-5.27,34.451,12.713S230.24,65.213,214.5,65.213H28.5C12.76,65.213,0,50.635,0,32.651S12.76.09,28.5.09Z" transform="translate(11 80.787)" fill="#d3d3cb"/>
</svg>
