<svg id="Componente_10_1" data-name="Componente 10 – 1" xmlns="http://www.w3.org/2000/svg" width="259.951" height="173.779" viewBox="0 0 259.951 173.779">
  <g id="Componente_2_3" data-name="Componente 2 – 3">
    <path id="Trazado_3" data-name="Trazado 3" d="M56.347.089c28.429,0,46.6,18.358,46.6,41.1S79.9,82.37,51.476,82.37,0,63.933,0,41.19C0,23.223,17.423,7.993,39.03,2.317A68.909,68.909,0,0,1,56.347.089Z" transform="translate(157 47.295)" fill="#d3d3cb"/>
    <circle id="Elipse_6" data-name="Elipse 6" cx="58.5" cy="58.5" r="58.5" transform="translate(51)" fill="#d3d3cb"/>
    <circle id="Elipse_7" data-name="Elipse 7" cx="37.5" cy="37.5" r="37.5" transform="translate(0 71)" fill="#d3d3cb"/>
    <path id="Trazado_2" data-name="Trazado 2" d="M28.5.09h186c15.74,0,34.451-5.27,34.451,12.713S230.24,65.213,214.5,65.213H28.5C12.76,65.213,0,50.635,0,32.651S12.76.09,28.5.09Z" transform="translate(11 80.787)" fill="#d3d3cb"/>
  </g>
  <path id="Trazado_7" data-name="Trazado 7" d="M4.518,0c2.5,0,9.736,1.877,9.736,4.191S7.014,8.383,4.518,8.383A4.364,4.364,0,0,1,0,4.191,4.364,4.364,0,0,1,4.518,0Z" transform="translate(74.87 163.699) rotate(135)" fill="#33b2e5"/>
  <path id="Trazado_30" data-name="Trazado 30" d="M4.518,0c2.5,0,9.736,1.877,9.736,4.191S7.014,8.383,4.518,8.383A4.364,4.364,0,0,1,0,4.191,4.364,4.364,0,0,1,4.518,0Z" transform="translate(106.87 163.699) rotate(135)" fill="#33b2e5"/>
  <path id="Trazado_31" data-name="Trazado 31" d="M4.518,0c2.5,0,9.736,1.877,9.736,4.191S7.014,8.383,4.518,8.383A4.364,4.364,0,0,1,0,4.191,4.364,4.364,0,0,1,4.518,0Z" transform="translate(155.87 163.699) rotate(135)" fill="#33b2e5"/>
  <path id="Trazado_32" data-name="Trazado 32" d="M4.518,0c2.5,0,9.736,1.877,9.736,4.191S7.014,8.383,4.518,8.383A4.364,4.364,0,0,1,0,4.191,4.364,4.364,0,0,1,4.518,0Z" transform="translate(204.87 163.699) rotate(135)" fill="#33b2e5"/>
</svg>
