<svg id="Componente_9_1" data-name="Componente 9 – 1" xmlns="http://www.w3.org/2000/svg" width="259.951" height="211.184" viewBox="0 0 259.951 211.184">
  <g id="Grupo_1" data-name="Grupo 1" transform="translate(28 -14)">
    <path id="Trazado_38" data-name="Trazado 38" d="M0,0,16.448-13.775,0,45.469H0Z" transform="translate(135.438 177.583) rotate(30)" fill="#ec6e4c"/>
    <path id="Trazado_39" data-name="Trazado 39" d="M0,0H15.976L6.849,40.655.165,45.384Z" transform="translate(148.438 142.583) rotate(30)" fill="#ec6e4c"/>
    <path id="Trazado_40" data-name="Trazado 40" d="M7.577,0,35.706.1,23.882,11.417,0,13.015Z" transform="translate(126 168.985)" fill="#ec6e4c"/>
  </g>
  <g id="Grupo_2" data-name="Grupo 2" transform="translate(-61 -22)">
    <path id="Trazado_38-2" data-name="Trazado 38" d="M0,0,16.448-13.775,0,45.469H0Z" transform="translate(135.438 177.583) rotate(30)" fill="#ec6e4c"/>
    <path id="Trazado_39-2" data-name="Trazado 39" d="M0,0H15.976L6.849,40.655.165,45.384Z" transform="translate(148.438 142.583) rotate(30)" fill="#ec6e4c"/>
    <path id="Trazado_40-2" data-name="Trazado 40" d="M7.577,0,35.706.1,23.882,11.417,0,13.015Z" transform="translate(126 168.985)" fill="#ec6e4c"/>
  </g>
  <g id="Componente_2_6" data-name="Componente 2 – 6">
    <path id="Trazado_3" data-name="Trazado 3" d="M56.347.089c28.429,0,46.6,18.358,46.6,41.1S79.9,82.37,51.476,82.37,0,63.933,0,41.19C0,23.223,17.423,7.993,39.03,2.317A68.909,68.909,0,0,1,56.347.089Z" transform="translate(157 47.295)" fill="#5c636f"/>
    <circle id="Elipse_6" data-name="Elipse 6" cx="58.5" cy="58.5" r="58.5" transform="translate(51)" fill="#5c636f"/>
    <circle id="Elipse_7" data-name="Elipse 7" cx="37.5" cy="37.5" r="37.5" transform="translate(0 71)" fill="#5c636f"/>
    <path id="Trazado_2" data-name="Trazado 2" d="M28.5.09h186c15.74,0,34.451-5.27,34.451,12.713S230.24,65.213,214.5,65.213H28.5C12.76,65.213,0,50.635,0,32.651S12.76.09,28.5.09Z" transform="translate(11 80.787)" fill="#5c636f"/>
  </g>
</svg>
